<svg xmlns="http://www.w3.org/2000/svg" viewBox="0 0 3000 2000" id="online-book-flight-ticket">
  <g>
    <path fill="#033147" d="M1125.49,812.85C638.68,812.85,244,1171,244,1612.78a732.89,732.89,0,0,0,13.41,139.78H1404.59l13-894.75A961.1,961.1,0,0,0,1125.49,812.85Z"/>
    <path fill="#899dab" d="M1149.27 904.56c-64.54-32.27-118.88 22.08-117.19 64.54-127.37-32.27-191.14 32.56-176.24 137.71-132.86-1.84-188.9 57.6-180.41 89.87-71.33-15.29-154.55 115.49-122.28 130.77s86.61-20.38 91.71-15.28c57.74 37.36 183.42-20.38 256.45-23.78s220.79-30.57 227.58-45.86S1149.27 904.56 1149.27 904.56ZM897.91 1643.35S833.38 1510.88 757 1572c0-51-101.9-174.93-237.77-66.24 0 0-13.59-67.93-64.54-39.06 2.9-45-69.8-119.68-128.11-108.74a674.17 674.17 0 0 0-45.12 242.59q0 24.5 1.74 48.6C464.35 1654 897.91 1643.35 897.91 1643.35Z" style="mix-blend-mode:screen"/>
    <path fill="#88a7ba" d="M295.07,1731.93H1367l4.69-120.85h-1089A684.3,684.3,0,0,0,295.07,1731.93Z"/>
    <path fill="#dee8ef" d="M781.9,1661.61c3-17.88-57-43.77-85.9-46.25S387.1,1649.23,384.62,1655s-2.48,12.39,5,14.86S772.81,1686.39,781.9,1661.61Z"/>
    <path fill="#bed0db" d="M753.67,1634.12c-1.47-.77-3-1.51-4.51-2.25-2.95,2.57-18.18,8.21-65.21,12.26a1100.46,1100.46,0,0,1-134.86,2.62l-.21,5c15.53.67,31.34,1,47,1,76.19,0,147.51-7.46,157.21-17.74A5,5,0,0,0,753.67,1634.12Z"/>
    <path fill="#edf8ff" d="M548.16,1660s-88.38,39.24-86.31,39.65,19,1.24,26-.41S618,1658.72,618,1658.72Z"/>
    <polygon fill="#edf8ff" points="406.92 1654.6 375.95 1597.61 396.6 1599.67 444.92 1649.23 406.92 1654.6"/>
    <polygon fill="#edf8ff" points="415.59 1659.96 379.67 1679.37 391.64 1680.2 448.22 1662.85 415.59 1659.96"/>
    <path fill="#eee4da" d="M2756,1121.46l-814.11-517.1a40.08,40.08,0,0,0-49.69,5.34h0a40.06,40.06,0,0,0-10.51,38.94l48,177.82a44.61,44.61,0,0,0,26.6,29.85l735.66,292.4a49.47,49.47,0,0,0,64.07-27.25Z"/>
    <path fill="#f57667" d="M1916.16 650.44a3.36 3.36 0 0 0 1.34 1.41l824.69 474.64a3.4 3.4 0 1 0 3.39-5.89L1920.89 646a3.4 3.4 0 0 0-4.73 4.48ZM1921.5 605.65a3.4 3.4 0 0 1-1.87-.56L1124.8 82a3.39 3.39 0 0 1 3.73-5.67l794.84 523.1a3.39 3.39 0 0 1-1.87 6.23Z"/>
    <path fill="#f57667" d="M1704.11,433.55c-69.07,56.61-103.88,161.91-103.88,161.91,5.66,24.91,26.89,37.36,32.55,37.36,75.86-4.52,164.17-66.8,175.5-82.65S1704.11,433.55,1704.11,433.55Z"/>
    <path fill="#2d4a58" d="M1745.29,572.29c-42.1-5.43-71.75-45.61-66.09-89.57a81.47,81.47,0,0,1,40.19-60.64,74.42,74.42,0,0,1,46.45-9.26c42.1,5.43,71.75,45.61,66.09,89.57S1787.4,577.71,1745.29,572.29Z"/>
    <ellipse cx="1755.57" cy="492.56" fill="#021f2d" rx="63.41" ry="60.01" transform="rotate(-82.5 1759.488 492.974)"/>
    <path fill="#f57667" d="M2283.9,880.76c-51.57,42.27-77.57,120.89-77.57,120.89,4.23,18.59,20.08,27.89,24.31,27.89,56.64-3.38,122.58-49.87,131-61.71S2283.9,880.76,2283.9,880.76Z"/>
    <path fill="#2d4a58" d="M2314.65,984.34c-31.44-4.05-53.58-34.05-49.35-66.87a60.82,60.82,0,0,1,30-45.28,55.59,55.59,0,0,1,34.69-6.91c31.43,4.05,53.57,34.05,49.34,66.88S2346.08,988.39,2314.65,984.34Z"/>
    <ellipse cx="2322.32" cy="924.81" fill="#021f2d" rx="47.34" ry="44.81" transform="rotate(-82.5 2327.62 925.95)"/>
    <path fill="#f57667" d="M2014.86,618.17c-13.58,0-23.15-4.56-35.31-13.14a3.4,3.4,0,0,1,3.92-5.55c26.75,18.88,36.93,17.45,136.13-19.1,118.92-43.81,276.45-93.53,351.57-81.69,65.64,10.37,89.67,61.39,84.37,107.35a3.4,3.4,0,0,1-6.75-.78c4.57-39.61-13.3-89.53-78.68-99.85-58.32-9.21-178.71,18.92-348.16,81.35C2063.54,608.28,2034.85,618.17,2014.86,618.17Z"/>
    <path fill="#2d4a58" d="M2499.91 450.23c-67.66-24.47-128.11-14.93-206.75 5.11l6.79 17c84.62-21.57 148.16-31 222.3 1.07A148.38 148.38 0 0 0 2499.91 450.23ZM2285.52 457.89s-215.69 60.29-310 101.06l5.94 14.43s253.91-90 309.1-98.5C2288.91 471.48 2285.52 457.89 2285.52 457.89Z"/>
    <rect width="740.49" height="1320.41" x="1119.97" y="612.15" fill="#021f2d" rx="33.03"/>
    <rect width="1296.5" height="716.58" x="841.96" y="914.07" fill="#033147" rx="21.77" transform="rotate(90 1490.215 1272.355)"/>
    <rect width="1140.32" height="692.67" x="920.05" y="912.47" fill="#bdd5e6" transform="rotate(90 1490.21 1258.81)"/>
    <rect width="109.97" height="31.08" x="1469.2" y="641.62" fill="#021f2d" rx="14.64"/>
    <rect width="34.44" height="31.08" x="1426.17" y="641.62" fill="#021f2d" rx="14.64"/>
    <path fill="#fff" d="M1163.06,1110.11a13.65,13.65,0,0,1-19.19-19.42l24.74-24.44L1012.32,908.06,655.64,1260.48l156.3,158.19,30.78-30.42a13.64,13.64,0,1,1,19.18,19.41l-30.78,30.42,386.75,391.42,618.68-.53,1-86-649.7-657.29ZM928.73,1341.64l-31.16,30.78A13.64,13.64,0,1,1,878.39,1353l31.15-30.78a13.65,13.65,0,0,1,19.19,19.41Zm66.82-66L964.4,1306.4A13.65,13.65,0,0,1,945.21,1287l31.16-30.78a13.65,13.65,0,1,1,19.18,19.42Zm66.82-66-31.15,30.78A13.64,13.64,0,1,1,1012,1221l31.15-30.78a13.64,13.64,0,1,1,19.18,19.41Zm66.82-66L1098,1174.35a13.65,13.65,0,0,1-19.18-19.42l31.15-30.78a13.65,13.65,0,1,1,19.18,19.42Z"/>
    <path fill="#033147" d="M655.64,1260.48l156.3,158.19,30.78-30.42a13.64,13.64,0,0,1,19.3.12,12.4,12.4,0,0,1,1.22,1.51l16.53-16.33a14.5,14.5,0,0,1-1.5-1.24,13.66,13.66,0,0,1,.12-19.3l31.15-30.78a13.65,13.65,0,0,1,19.3.11,13.22,13.22,0,0,1,1.22,1.51l16.54-16.33a12.66,12.66,0,0,1-1.5-1.24,13.65,13.65,0,0,1,.11-19.3l31.16-30.78a13.65,13.65,0,0,1,19.3.12,14.64,14.64,0,0,1,1.22,1.51l16.53-16.33a12.66,12.66,0,0,1-1.5-1.24,13.64,13.64,0,0,1,.12-19.3l31.15-30.78a13.26,13.26,0,0,1,20.52,1.63l16.53-16.34a14.5,14.5,0,0,1-1.5-1.24,13.65,13.65,0,0,1,.12-19.3l31.15-30.78a13.66,13.66,0,0,1,19.3.12,12.4,12.4,0,0,1,1.22,1.51l14.73-14.55a12.66,12.66,0,0,1-1.5-1.24,13.65,13.65,0,0,1,.11-19.3l24.74-24.44L1012.32,908.06Z"/>
    <path fill="#fff" d="M874.68,1106.92c5.17,5.24,117.47,127.38,112.24,132.55s-126-108.59-131.19-113.82a13.32,13.32,0,0,1,18.95-18.73Z"/>
    <path fill="#65889e" d="M1006.17 1932.38h151.93v-236.5l-87.56-32.94L860.22 1461.62H760.92l32.69 244.74Z"/>
    <rect width="160.54" height="67.92" x="760.87" y="1382.84" fill="#65889e"/>
    <rect width="40.98" height="67.92" x="738.98" y="1382.84" fill="#a3c5db" rx="19.3"/>
    <path fill="#a3c5db" d="M760.92,1461.61h0a26.6,26.6,0,0,1,26.53,24.94c3,47.7,11.76,152,33.71,207.43a34.87,34.87,0,0,0,32.38,22.1h82.3a49.8,49.8,0,0,1,49.44,43.82l20.89,172.48h-177c-47.15-87.61-86.83-342-94.74-442.11A26.58,26.58,0,0,1,760.92,1461.61Z"/>
    <path fill="#a3c5db" d="M942,1747.52H920.66v-72.41a13.48,13.48,0,0,0-13.47-13.47H794.36v-21.33H907.19a34.84,34.84,0,0,1,34.8,34.8Z"/>
  </g>
</svg>
