<svg xmlns="http://www.w3.org/2000/svg" xml:space="preserve" id="businessman-doing-work-in-flexible-time" x="0" y="0" enable-background="new 0 0 3000 3000" version="1.1" viewBox="0 0 3000 3000">
  <ellipse cx="743.1" cy="2829.2" fill="#e0e0e0" rx="633.6" ry="26.2"/>
  <circle cx="743.1" cy="2111.1" r="718.1" fill="#ef5350" transform="rotate(-45.001 743.077 2111.135)"/>
  <circle cx="743.1" cy="2111.1" r="608.4" fill="#f5f5f5" transform="rotate(-45.001 743.077 2111.136)"/>
  <path fill="#e0e0e0" d="M1185.6,2528.7c91.2-106.4,146.3-244.6,146.3-395.7c0-336-272.4-608.4-608.4-608.4c-174.8,0-332.3,73.7-443.2,191.7c111.6-130.7,277.6-213.5,462.9-213.5c336,0,608.4,272.4,608.4,608.4C1351.5,2272.8,1288.5,2419.8,1185.6,2528.7z"/>
  <polygon fill="#ffa726" points="745.5 2097 742.6 2120.5 1096.9 2172.3 1149.6 2157.3 1102.2 2128.4"/>
  <path fill="#414042" d="M756.5 1603.6 756.5 1603.6c-5 0-9-4-9-9v-47.3c0-5 4-9 9-9l0 0c5 0 9 4 9 9v47.3C765.5 1599.5 761.5 1603.6 756.5 1603.6zM393.7 1742.8 393.7 1742.8c-3.5 3.5-9.2 3.5-12.8 0l-33.4-33.4c-3.5-3.5-3.5-9.2 0-12.8l0 0c3.5-3.5 9.2-3.5 12.8 0l33.4 33.4C397.2 1733.5 397.2 1739.2 393.7 1742.8zM235.6 2097.7 235.6 2097.7c0 5-4 9-9 9h-47.3c-5 0-9-4-9-9l0 0c0-5 4-9 9-9h47.3C231.5 2088.7 235.6 2092.7 235.6 2097.7zM374.7 2460.5 374.7 2460.5c3.5 3.5 3.5 9.2 0 12.8l-33.4 33.4c-3.5 3.5-9.2 3.5-12.8 0l0 0c-3.5-3.5-3.5-9.2 0-12.8l33.4-33.4C365.5 2457 371.2 2457 374.7 2460.5zM729.7 2618.7 729.7 2618.7c5 0 9 4 9 9v47.3c0 5-4 9-9 9l0 0c-5 0-9-4-9-9v-47.3C720.7 2622.7 724.7 2618.7 729.7 2618.7zM1092.5 2479.5 1092.5 2479.5c3.5-3.5 9.2-3.5 12.8 0l33.4 33.4c3.5 3.5 3.5 9.2 0 12.8l0 0c-3.5 3.5-9.2 3.5-12.8 0l-33.4-33.4C1089 2488.7 1089 2483 1092.5 2479.5zM1250.6 2124.5 1250.6 2124.5c0-5 4-9 9-9h47.3c5 0 9 4 9 9v0c0 5-4 9-9 9h-47.3C1254.7 2133.5 1250.6 2129.5 1250.6 2124.5zM1111.4 1761.7 1111.4 1761.7c-3.5-3.5-3.5-9.2 0-12.8l33.4-33.4c3.5-3.5 9.2-3.5 12.8 0l0 0c3.5 3.5 3.5 9.2 0 12.8l-33.4 33.4C1120.7 1765.2 1115 1765.2 1111.4 1761.7zM548 2567.6c-1.3 0-2.7-.3-4-.9-4.9-2.2-7.1-8-4.9-12.9l195.1-437c2.2-4.9 8-7.1 12.9-4.9 4.9 2.2 7.1 8 4.9 12.9l-195.1 437C555.3 2565.4 551.8 2567.6 548 2567.6z"/>
  <polygon fill="#ffa726" points="753.6 2106.6 725.2 2108.4 681.1 1625.7 703.2 1556 734.4 1622.4"/>
  <path fill="#ef5350" d="M785.7,2111.1c0,23.5-19.1,42.6-42.6,42.6c-23.5,0-42.6-19.1-42.6-42.6c0-23.5,19.1-42.6,42.6-42.6C766.6,2068.5,785.7,2087.6,785.7,2111.1z"/>
  <ellipse cx="2256.9" cy="2829.2" fill="#e0e0e0" rx="633.6" ry="26.2"/>
  <circle cx="2256.9" cy="2111.1" r="718.1" fill="#ef5350" transform="rotate(-45.001 2256.89 2111.153)"/>
  <circle cx="2256.9" cy="2111.1" r="608.4" fill="#f5f5f5" transform="rotate(-45.001 2256.89 2111.153)"/>
  <path fill="#e0e0e0" d="M2699.4,2528.7c91.2-106.4,146.3-244.6,146.3-395.7c0-336-272.4-608.4-608.4-608.4c-174.8,0-332.3,73.7-443.2,191.7c111.6-130.7,277.6-213.5,462.9-213.5c336,0,608.4,272.4,608.4,608.4C2865.3,2272.8,2802.3,2419.8,2699.4,2528.7z"/>
  <polygon fill="#ffa726" points="2276.1 2106.8 2261.3 2125.2 2534.6 2356.4 2587.2 2371.5 2562.3 2322"/>
  <path fill="#414042" d="M2270.3 1603.6 2270.3 1603.6c-5 0-9-4-9-9v-47.3c0-5 4-9 9-9l0 0c5 0 9 4 9 9v47.3C2279.3 1599.5 2275.3 1603.6 2270.3 1603.6zM1907.5 1742.8 1907.5 1742.8c-3.5 3.5-9.2 3.5-12.8 0l-33.4-33.4c-3.5-3.5-3.5-9.2 0-12.8l0 0c3.5-3.5 9.2-3.5 12.8 0l33.4 33.4C1911 1733.5 1911 1739.2 1907.5 1742.8zM1749.4 2097.7 1749.4 2097.7c0 5-4 9-9 9H1693c-5 0-9-4-9-9l0 0c0-5 4-9 9-9h47.3C1745.3 2088.7 1749.4 2092.7 1749.4 2097.7zM1888.6 2460.5 1888.6 2460.5c3.5 3.5 3.5 9.2 0 12.8l-33.4 33.4c-3.5 3.5-9.2 3.5-12.8 0l0 0c-3.5-3.5-3.5-9.2 0-12.8l33.4-33.4C1879.3 2457 1885 2457 1888.6 2460.5zM2243.5 2618.7 2243.5 2618.7c5 0 9 4 9 9v47.3c0 5-4 9-9 9l0 0c-5 0-9-4-9-9v-47.3C2234.5 2622.7 2238.5 2618.7 2243.5 2618.7zM2606.3 2479.5 2606.3 2479.5c3.5-3.5 9.2-3.5 12.8 0l33.4 33.4c3.5 3.5 3.5 9.2 0 12.8l0 0c-3.5 3.5-9.2 3.5-12.8 0l-33.4-33.4C2602.8 2488.7 2602.8 2483 2606.3 2479.5zM2764.4 2124.5 2764.4 2124.5c0-5 4-9 9-9h47.3c5 0 9 4 9 9v0c0 5-4 9-9 9h-47.3C2768.5 2133.5 2764.4 2129.5 2764.4 2124.5zM2625.3 1761.7 2625.3 1761.7c-3.5-3.5-3.5-9.2 0-12.8l33.4-33.4c3.5-3.5 9.2-3.5 12.8 0l0 0c3.5 3.5 3.5 9.2 0 12.8l-33.4 33.4C2634.5 1765.2 2628.8 1765.2 2625.3 1761.7zM2061.8 2567.6c-1.3 0-2.7-.3-4-.9-4.9-2.2-7.1-8-4.9-12.9l195.1-437c2.2-4.9 8-7.1 12.9-4.9 4.9 2.2 7.1 8 4.9 12.9l-195.1 437C2069.1 2565.4 2065.6 2567.6 2061.8 2567.6z"/>
  <polygon fill="#ffa726" points="2270.3 2102.1 2245.1 2115.5 2005.6 1694 1997 1621.4 2052.8 1669"/>
  <path fill="#ef5350" d="M2299.5,2111.1c0,23.5-19.1,42.6-42.6,42.6c-23.5,0-42.6-19.1-42.6-42.6c0-23.5,19.1-42.6,42.6-42.6C2280.4,2068.5,2299.5,2087.6,2299.5,2111.1z"/>
  <polygon fill="#f7c19b" points="381.7 1299 385.4 1397.7 540.1 1391.7 536.4 1293"/>
  <path fill="#333" d="M365.9,1399.6l-17.7,17.5l-5.9,4.8c-3.4,2.8-7.6,4.6-12,5.1l-17.1,2.1c-4.3,0.5-8.1-2.4-8.7-6.6l-2.4-18.7l4.9-0.6l-1.3-10.1l-4.8,0.6l-3.3-22.4l4-0.5l-1.3-10.6l-4.3,0.5l-3-25.2l15.1-15c-8.5-19.3-18-36.5-29-50.8c-0.6-0.6-4-26.1-3.3-26.3l3.9-0.5l-1.2-9.9l-3.9,0.5c-1.6-8.1-2.7-16.2-3.1-24.3l4.1-0.5l-1.2-9.7l-3.3,0.4c-1-8.5-1.1-16.1,0-22.8l3.2-0.4l0-9.8l-2.8,0.4c0.1-5.8,1-11.3,2.4-16.5l3.3,0.1l2.5-9.1l-3.4-1.4c2.7-9.9,5.7-18.9,9.2-26.9c0,0,13-3.2,14.6,4.7l24.4,100.9l34.9,129.2L365.9,1399.6z"/>
  <path fill="#414042" d="M377.8,1417.6c-6.4,0.8-12.9,0.9-19.4,0.4l-10.1-0.9c-4.2-39.5-11.9-75.8-24.4-107.5l29.2-54.9c1.7-3.2,5.8-4.2,8.8-2.3l67.7,42.3l16.7,101.6c0.6,3.7-2.1,7.2-5.9,7.5l-12.3,1.1c-9.1,0.8-18.1,3-26.5,6.5C393.9,1414.5,385.9,1416.5,377.8,1417.6z"/>
  <polygon fill="#f7c19b" points="2618.3 1299 2614.6 1397.7 2459.9 1391.7 2463.6 1293"/>
  <path fill="#333" d="M2634.1,1399.6l17.7,17.5l5.9,4.8c3.4,2.8,7.6,4.6,12,5.1l17.1,2.1c4.3,0.5,8.1-2.4,8.7-6.6l2.4-18.7l-4.9-0.6l1.3-10.1l4.8,0.6l3.3-22.4l-4-0.5l1.3-10.6l4.3,0.5l3-25.2l-15.1-15c8.5-19.3,18-36.5,29-50.8c0.6-0.6,4-26.1,3.3-26.3l-3.9-0.5l1.2-9.9l3.9,0.5c1.6-8.1,2.7-16.2,3.1-24.3l-4.1-0.5l1.2-9.7l3.3,0.4c1-8.5,1.1-16.1,0-22.8l-3.2-0.4l0-9.8l2.8,0.4c-0.1-5.8-1-11.3-2.4-16.5l-3.3,0.1l-2.5-9.1l3.4-1.4c-2.7-9.9-5.7-18.9-9.2-26.9c0,0-13-3.2-14.6,4.7l-24.4,100.9l-34.9,129.2L2634.1,1399.6z"/>
  <path fill="#414042" d="M2622.2,1417.6c6.4,0.8,12.9,0.9,19.4,0.4l10.1-0.9c4.2-39.5,11.9-75.8,24.4-107.5l-29.2-54.9c-1.7-3.2-5.8-4.2-8.8-2.3l-67.7,42.3l-16.7,101.6c-0.6,3.7,2.1,7.2,5.9,7.5l12.3,1.1c9.1,0.8,18.1,3,26.5,6.5C2606.2,1414.5,2614.1,1416.5,2622.2,1417.6z"/>
  <path fill="#333" d="M2547.5,1285l-16.7,125.8l-362.4-15.5c-52.6-2.9-105.3-4.8-158-6.1c-61.3-1.5-169-6.5-304.4-22.8c-123.8-14.9-248.9-14.9-372.6,0c-135.4,16.3-243.2,21.3-304.4,22.8c-52.7,1.2-105.4,3.2-158,6.1l-394.5,15l-15.8-123.9l419.7-38.8c54.8-4.1,109-15.2,160.9-33l160.1-62.2v-0.1l114.7-44.6c40.2-56,44.2,17,83.4-61.8c74.8-150.5,196,49.6,286.9,59.1l199.3,68.9l112.2,40.7c52,17.8,106.1,28.9,160.9,33L2547.5,1285z"/>
  <path fill="#414042" d="M1706,1366.4c-123.8-14.9-248.9-14.9-372.6,0l90.7-22.9c62.8-15.9,128.5-15.9,191.2,0L1706,1366.4z"/>
  <path fill="#f7c19b" d="M1452.7,446.8c40.8,65.1,75.3,57.2,103.7-19.7l-0.6-76.6L1456,361L1452.7,446.8z"/>
  <path fill="#f7c19b" d="M1376.3,242.3c0,0-13.1,108.2,31.2,158.6c23,26.1,61.8,29.8,89.8,9.5c21.4-15.5,51.9-42.9,71.7-83.8c1.7-3.5-24.6-92.9-24.6-92.9l-27.9-26.3l-83.7,6.7L1376.3,242.3z"/>
  <path fill="#333" d="M1479.8,306.3l4.8-38c0,0-9.8,6.5-22.3,11.4c-18.2,7.1-38.7-2.4-45.6-21l-1.7-4.6c0,0-79.1,13.1-70.3-61.4c2.2-18.9,15.3-34.7,33.4-39.4c16-4.2,40.1-4.9,75.3,5.2c13.2,3.8,27.3-0.8,38.8-8.4c12.5-8.3,33.5-12.2,56.4,25.7c4,6.6,8.9,12.5,14.7,17.4c16.4,13.7,55.6,83.9-6.6,176.8c-2.7,4-8.8,2-8.7-2.9c1-29.9-0.4-89.9-29-84.3c-6.9,1.4-12.5,6.3-15.5,12.7l-7.3,15.6c-2,4.3-6.9,6.2-11.2,4.3l0,0C1481.4,314,1479.3,310.2,1479.8,306.3z"/>
  <path fill="#f7c19b" d="M967.9,662.5l-20.5-32.2c-3.3-5.1-4.3-11.4-2.9-17.3l6.1-25.5c1.2-4.8-1.7-9.7-6.4-11l0,0c-3.9-1.1-8,0.6-10,4.1l-11.8,20.1c-3.1,5.3-10.2,6.6-15,2.8L859,564.5c-3.8-3.1-9.3-2.5-12.4,1.3l0,0c-3,3.7-2.7,9.2,0.7,12.4l25.3,24.1L844,575.1c-4.1-3.9-10.7-3.4-14.2,1.1l0,0c-3.2,4.1-2.7,10,1.2,13.5l43.2,39L840,597.3c-4-3.7-10.2-3.3-13.7,0.8l0,0c-3.5,4.1-3.1,10.3,1,13.8l46.8,41.1l-35.3-31.2c-3.9-3.5-9.9-3.1-13.4,0.8l0,0c-3.4,3.8-3.3,9.7,0.3,13.4c26.5,27.8,59.5,54.2,96,79.8L967.9,662.5z"/>
  <path fill="#f1f2f2" d="M1579.6,468.3l-23.2-41.2c-27.9,42.9-62.1,51.4-103.7,19.7l-102.7,179.5l39.8,78.6l17.9,287l39.7,134.7c25.3,34.5,63.7,37.7,109.5,23l50.4-38.5l59.8-289.7l-4.5-120.9c0,0-27-83.7-31.1-87.9C1627.6,608.6,1579.6,468.3,1579.6,468.3z"/>
  <path fill="#1e88e5" d="M955.7,625.2c0,0,182.1,130.6,191,125.7c24.1-13.2,39.6-43.6,53-66.6c31.4-53.5,67.6-108.7,113.4-150.7c14.2-13,29.1-25.3,44.7-36.4c14.1-10.1,28.7-19.3,43.9-27.5c8-4.3,16.2-8.4,24.5-12.2c3-1.4,24.5-9.3,26.5-10.8c-4,25-8.1,49.9-12.1,74.9c-7.6,47-9.9,92.2-3.8,139.8c4.8,38.1,12,75.9,13.7,114.3c2,44.9-6.3,88.4-10,132.8c-6.9,82.8,4.4,145.9,9.4,228.6c0.7,11.8-9,21.5-20.6,20.5c-46.1-4.1-87.8-10.7-120.3-40.9c-3.5-3.2-5.4-7.9-5-12.7c4-55,11-99.8,16.7-154.7c6.3-59.9,13.9-213.8,3.8-215.7c-9.1-1.7-16.2,15.9-21.4,24.2c-25.8,41.2-57.8,92.9-88.9,120.6c-3.1,2.3-6.7,6-10.3,7.6c-32.1,23.7-76.3,20.8-105.2-6.9L893.7,712.1L955.7,625.2z"/>
  <path fill="#eab896" d="M1453.6,423.2c0,0,56.9-4,80.5-40.4c0,0-21.4,43.5-81,55.6L1453.6,423.2z"/>
  <polygon fill="#58595b" points="1335.3 866.9 1489.4 823 1491.1 811 1333 855.9"/>
  <polygon fill="#bdbdbd" points="1491.1 811 1272.5 779.5 1282.1 835.3 1333 855.9"/>
  <path fill="#e0e0e0" d="M831.6,519.5l62.3,273.3l2.5,11l438.9,63.1l-2.3-11l-59.4-286c-0.8-3.5-3.6-6.3-7.2-6.7l-425.7-54C835,508.4,830.3,513.7,831.6,519.5z"/>
  <polygon fill="#aaa" points="893.9 792.8 896.4 803.8 1335.3 866.9 1333 855.9"/>
  <path fill="#f5f5f5" d="M1039.6,674.7c2.8,19.7,17.5,34,33,31.7c15.4-2.2,25.7-20,22.9-39.8c-2.8-19.7-17.5-34-33-31.7C1047.1,637.1,1036.9,654.9,1039.6,674.7z"/>
  <path fill="#f7c19b" d="M1377.6,825.9l-29.3-14c-5.6-2-10.2-6.4-12.6-11.9l-10.4-24c-2-4.6-7.2-6.7-11.7-4.8l0,0c-3.7,1.6-6,5.4-5.5,9.5l2.7,23.2c0.7,6.2-4.1,11.6-10.2,11.5l-61.7-1.1c-4.8-0.1-8.8,3.7-9,8.6l0,0c-0.2,4.8,3.3,9,8,9.4l34.5,3.5l-38.9-3.9c-5.6-0.6-10.5,3.9-10.6,9.7l0,0c-0.1,5.2,3.9,9.6,9,10l57.6,4.3l-45.9-3.8c-5.4-0.4-10,3.7-10.4,9.1l0,0c-0.3,5.4,3.7,10.1,9,10.4l61.6,3.7l-46.6-3c-5.2-0.3-9.7,3.6-10.1,8.9l0,0c-0.4,5.1,3.2,9.7,8.2,10.5c37.6,5.6,79.5,6.2,123.9,4L1377.6,825.9z"/>
  <path fill="#1e88e5" d="M1381.1,916.5l-3.9-103.2l319.7-78.2l36.2,385.7c0.2,5.2-3.9,9.4-9,9.4c-31.3,0-134.8,81.7-167.1,19.3c-3-5.8-0.3-14.2,0.7-20.2c1.6-10,2.8-20.1,3.7-30.2c11-120.6-22.5-239-24.6-359.2c-1.7-96.1,11.9-192.8,17.9-288.6c0.1-1.3,1.7-24.3,1.7-24.3c151.2,55.9,167.9,108.5,231.1,294c3.7,10.8,6.7,22.3,6.6,34.8c-0.8,54.2-42.2,98.8-94.9,106.4L1381.1,916.5z"/>
</svg>
