<svg xmlns="http://www.w3.org/2000/svg" xml:space="preserve" id="businessman-working-on-stock-market-analysis" x="0" y="0" enable-background="new 0 0 3000 3000" version="1.1" viewBox="0 0 3000 3000">
  <path d="M25.68,2325.81c3.33,18.83,19.84,33.43,40.09,33.43h491.1l103.93-143.07L25.68,2325.81z" fill="#0a97af"/>
  <path d="M25.68,2325.81c3.33,18.83,19.84,33.43,40.09,33.43h491.1l103.93-143.07l122.05-168.07v-457.01l-11.94-453.03l-218.56-302l-248.67-2.32L25.33,2313.28C24.79,2317.55,24.91,2321.77,25.68,2325.81z" fill="#f0576a"/>
  <path d="M2073.76,2301.9l-179.46-1066.35l-70.63-419.9c-4.45-26.15-26.94-45.23-53.38-45.23H357.05c-33.47,0-58.86,30.06-53.34,63.31l64.03,401.82l159.91,1084.4c4.16,25.9,26.94,45.02,53.34,45.02h1439.4c0.47,0,0.97,0,1.44-0.04C2054.61,2364.09,2079.18,2334.39,2073.76,2301.9z M1475.23,2078.86h-267.49l-42.86-249.55h267.49L1475.23,2078.86z" fill="#ccc"/>
  <path d="M2143.35,2301.88l-38.81-230.52l-3.68-21.84l-113.21-672.72l-13.68-81.34l-3.44-20.55l-1.56-9.27l-5.07-30.06l-70.68-419.91c-4.44-26.18-26.91-45.24-53.36-45.24H400.44c-33.5,0-58.85,30.07-53.36,63.29l67.49,401.85l7.36,43.64l4.58,27.05l121.82,723.44l16.8,99.81l32.08,190.42c4.17,25.9,26.94,44.99,53.33,44.99h1439.44C2123.45,2364.93,2148.8,2334.86,2143.35,2301.88z M1207.75,2078.86l-42.88-249.55h267.5l42.88,249.55H1207.75z" fill="#ededee"/>
  <path d="M347.07,833.72l67.5,401.84h1549.28l-70.64-419.89c-4.45-26.16-26.94-45.26-53.36-45.26H400.45C366.96,770.4,341.59,800.49,347.07,833.72z" fill="#f0576a"/>
  <path d="M1474.85,912.26c20.9,51.91,72.91,79.88,116.18,62.47c43.26-17.42,61.39-73.62,40.49-125.54c-20.9-51.92-72.92-79.88-116.18-62.47C1472.08,804.14,1453.95,860.34,1474.85,912.26z" fill="#ef4c62"/>
  <path d="M1551.24,913.51L1551.24,913.51c30.91,0,53.84-28.68,47.03-58.83l-60.68-182.04c-4.96-21.98-24.49-37.59-47.03-37.59l0,0c-30.91,0-53.84,28.68-47.03,58.83l60.68,182.04C1509.18,897.9,1528.71,913.51,1551.24,913.51z" fill="#595b5f"/>
  <path d="M1061.07,912.26c20.9,51.91,72.91,79.88,116.18,62.47c43.26-17.42,61.39-73.62,40.49-125.54c-20.9-51.92-72.91-79.88-116.18-62.47C1058.3,804.14,1040.17,860.34,1061.07,912.26z" fill="#ef4c62"/>
  <path d="M1137.46,913.51L1137.46,913.51c30.91,0,53.84-28.68,47.03-58.83l-60.68-182.04c-4.96-21.98-24.49-37.59-47.03-37.59l0,0c-30.91,0-53.84,28.68-47.03,58.83l60.68,182.04C1095.4,897.9,1114.93,913.51,1137.46,913.51z" fill="#595b5f"/>
  <path d="M647.29,912.26c20.9,51.91,72.92,79.88,116.18,62.47c43.26-17.42,61.39-73.62,40.49-125.54c-20.9-51.92-72.91-79.88-116.18-62.47C644.52,804.14,626.39,860.34,647.29,912.26z" fill="#ef4c62"/>
  <path d="M723.68,913.51L723.68,913.51c30.91,0,53.84-28.68,47.03-58.83l-60.68-182.04c-4.96-21.98-24.49-37.59-47.03-37.59l0,0c-30.91,0-53.84,28.68-47.03,58.83l60.68,182.04C681.62,897.9,701.14,913.51,723.68,913.51z" fill="#595b5f"/>
  <path d="M1877.45,1358.83H528.62l158.51,932.91h1348.83L1877.45,1358.83z M693.94,2283.67l-33.43-196.75l-1.36-8.07l-42.4-249.55l-1.4-8.04l-77.19-454.37h1332.47l77.19,454.37l1.4,8.04l42.4,249.55l1.36,8.07l33.43,196.75H693.94z" fill="#ccc"/>
  <polygon points="1475.23 2078.86 1207.75 2078.86 1164.88 1829.31 1432.37 1829.31" fill="#ededee"/>
  <rect width="1340.63" height="8.06" x="568.19" y="1563.63" fill="#ccc"/>
  <rect width="1340.65" height="8.04" x="611.94" y="1821.27" fill="#ccc"/>
  <rect width="1340.65" height="8.07" x="655.7" y="2078.86" fill="#ccc"/>
  <rect width="8.06" height="938.41" x="1707.41" y="1356.09" fill="#ccc" transform="rotate(-9.735 1711.094 1824.96)"/>
  <polygon points="1519.14 2287.05 1511.21 2288.41 1510.38 2283.67 1476.6 2086.93 1475.23 2078.86 1432.37 1829.31 1431 1821.27 1352.95 1366.9 1352.38 1363.53 1360.34 1362.17 1361.17 1366.9 1439.18 1821.27 1440.55 1829.31 1483.37 2078.86 1484.77 2086.93 1518.57 2283.67" fill="#ccc"/>
  <polygon points="1243.51 2287.05 1235.55 2288.41 1234.72 2283.67 1200.93 2086.93 1199.57 2078.86 1156.71 1829.31 1155.34 1821.27 1077.29 1366.9 1076.71 1363.53 1084.64 1362.17 1085.47 1366.9 1163.52 1821.27 1164.88 1829.31 1207.75 2078.86 1209.15 2086.93 1242.94 2283.67" fill="#ccc"/>
  <rect width="8.06" height="938.41" x="880.39" y="1356.09" fill="#ccc" transform="rotate(-9.735 884.529 1825.449)"/>
  <polygon points="2528.85 896.53 1987.64 1376.8 1535.86 1777.72 1312.88 1509.46 565.14 2129.51 548.33 2029.7 1324.3 1386.21 1545.38 1652.18 1970.52 1274.91 2470.7 831.02" fill="#6dc497"/>
  <polygon points="2548.72 951.64 2590.63 781.54 2401.01 791.34" fill="#6dc497"/>
  <ellipse cx="2723.26" cy="2325.25" rx="251.74" ry="39.7" fill="#ededee"/>
  <path d="M2491.96,1629.51l-34.32,6.07c-3.73,0.66-7.39,1.66-10.97,2.89c-10.89,3.75-39.53,10-53.52-21.32c-2.14-4.79,1.9-10.1,7.05-9.07c9.18,1.83,25.07,3.92,30.34-1.1l-10.92-10.38c-2.05-1.94-2.03-5.21,0.03-7.14l0,0c1.61-1.5,4.02-1.75,5.9-0.61l15.35,9.33c3.75,2.28,8.13,3.31,12.51,2.95l32.14-2.68" fill="#f7b0c0"/>
  <path d="M2743.69,1586.47l-106.09,37.18c-4.91,1.74-10,2.92-15.17,3.52l-165.39,13l-6.76-42.74l159.91-26c7.21-1.53,14.08-4.35,20.28-8.33l93.34-66.85l11.58,7.44l24.26,53.29L2743.69,1586.47z" fill="#54619c"/>
  <rect width="41.1" height="40.07" x="2662.25" y="2244.96" fill="#f7b0c0" transform="rotate(-90.001 2682.803 2265)"/>
  <path d="M2574.2,2313.18c0,0-5.25,28.15,52.55,22.59c5.66-0.54,11.26-1.63,16.74-3.17c7.85-2.21,20.75-4.97,29.88-5.77l0.39,9.44l34.51-1.92c3.67-0.35,6.43-3.52,6.26-7.21l-1.73-21.11c0,0-57.97,1.73-58.94,2.17c-0.97,0.44-50.2,11.1-50.2,11.1L2574.2,2313.18z" fill="#353a68"/>
  <path d="M2602.44,2331.79l1.89,0.11c5.89,0.28,12.94,0.07,21.32-0.74c5.65-0.53,11.26-1.61,16.73-3.16c7.86-2.21,20.8-5.58,29.92-6.35c0,0,6.88-0.14,14.98-0.56c0.6-0.04,1.16-0.07,1.75-0.11c1.37-0.07,2.77-0.14,4.18-0.25c0.6-0.03,1.19-0.07,1.79-0.11c1.09-0.07,2.14-0.14,3.19-0.25c0.6-0.07,1.19-0.1,1.79-0.18c7.4-0.67,13.4-1.65,13.33-3.05c0.53-5.54,0.7-11.08,0.42-16.59c-0.28-6.59-1.16-13.15-2.66-19.71c-0.98-4.35-5.05-7.29-9.5-6.77l-31.42,3.65c-2.42,0.28-4.77-0.56-6.49-2.21c-0.18-0.21-0.35-0.39-0.53-0.6l-0.11-0.11l-0.46-0.56l-0.03-0.07l-0.07-0.07l-1.12-1.33l-0.03-0.04l-1.12-1.33l-0.07-0.11c-1.44-1.72-4.07-1.72-5.51-0.04c-6.1,7.01-12.63,13.4-19.6,19.08c-8.94,7.33-19.61,12.27-30.9,14.27c-0.63,0.11-1.3,0.21-1.96,0.32c-2.46,0.35-4.95,0.6-7.47,0.67c-20.76,0.67-20.45,7.54-20.45,7.54S2569.75,2329.76,2602.44,2331.79z" fill="#484c82"/>
  <rect width="41.1" height="40.07" x="2811.44" y="2244.96" fill="#f7b0c0" transform="rotate(-90 2831.986 2265)"/>
  <path d="M2723.39,2313.18c0,0-5.25,28.15,52.55,22.59c5.66-0.54,11.26-1.63,16.74-3.17c7.85-2.21,20.75-4.97,29.88-5.77l0.39,9.44l34.51-1.92c3.67-0.35,6.43-3.52,6.26-7.21l-1.73-21.11c0,0-57.97,1.73-58.94,2.17c-0.97,0.44-50.2,11.1-50.2,11.1L2723.39,2313.18z" fill="#353a68"/>
  <path d="M2751.62,2331.79l1.89,0.11c5.89,0.28,12.94,0.07,21.32-0.74c5.65-0.53,11.26-1.61,16.73-3.16c7.86-2.21,20.8-5.58,29.92-6.35c0,0,6.88-0.14,14.98-0.56c0.6-0.04,1.16-0.07,1.75-0.11c1.37-0.07,2.77-0.14,4.18-0.25c0.6-0.03,1.19-0.07,1.79-0.11c1.09-0.07,2.14-0.14,3.19-0.25c0.6-0.07,1.19-0.1,1.79-0.18c7.4-0.67,13.4-1.65,13.33-3.05c0.53-5.54,0.7-11.08,0.42-16.59c-0.28-6.59-1.16-13.15-2.66-19.71c-0.98-4.35-5.05-7.29-9.5-6.77l-31.42,3.65c-2.42,0.28-4.77-0.56-6.49-2.21c-0.18-0.21-0.35-0.39-0.53-0.6l-0.11-0.11l-0.46-0.56l-0.03-0.07l-0.07-0.07l-1.12-1.33l-0.03-0.04l-1.12-1.33l-0.07-0.11c-1.44-1.72-4.07-1.72-5.51-0.04c-6.1,7.01-12.63,13.4-19.6,19.08c-8.94,7.33-19.61,12.27-30.9,14.27c-0.63,0.11-1.3,0.21-1.96,0.32c-2.46,0.35-4.95,0.6-7.47,0.67c-20.76,0.67-20.45,7.54-20.45,7.54S2718.94,2329.76,2751.62,2331.79z" fill="#484c82"/>
  <path d="M2855.64,1724.45c13.31,79.71-0.38,157.92-7.28,267.05l13.41,267.82h-60.16l-32.97-253.96l-12.66-104.51l-24.73,90.65l-20.08,267.82h-59.56l-1.43-278.13c10.06-90.79,23.56-177.47,42.6-257.51L2855.64,1724.45z" fill="#7b90c9"/>
  <rect width="44.73" height="79.89" x="2757.28" y="1433.5" fill="#f7b0c0" transform="rotate(-180 2779.647 1473.447)"/>
  <path d="M2724.88,1421.23c-5.12,33.64,18.73,54.43,42.05,54.43c23.32,0,42.41-23.86,42.41-54.43c0-30.57-18.91-55.35-42.23-55.35C2743.79,1365.88,2729.48,1391.01,2724.88,1421.23z" fill="#f7b0c0"/>
  <path d="M2746.73,1362.98c18.82-15.15,34.93-1.46,34.93-1.46c27.69-7.68,32.12,22.82,32.12,22.82c31.7-0.85-11.77,76.21-11.77,76.21l-2.94-10.28c-1.5-5.29-1.26-10.97,0.94-16.01c4.23-9.7,5.28-21.58-4.79-23.2c-8.74-1.41-13.44,11.75-15.18,18.1c-0.5,1.83-2.36,2.91-4.19,2.45l0,0c-1.74-0.44-2.86-2.12-2.59-3.89l3.91-25.55c-12.45,3.75-37.13-0.82-42.47-2.76c0,0-22.84-7.04-18.97-31.18c0,0,2.99,6.09,15.39,6.53c0,0-10.23-2.35-8.97-16.96C2722.15,1357.8,2735.69,1371.87,2746.73,1362.98z" fill="#484c82"/>
  <path d="M2719.76,1630.61c0,1.46,0,161.19,0,161.19c49.34,23.58,94.44,6.05,94.34,6.44l-2.38-271.55l-9.75-46.42l-35,23.35l-21.99-18.39l-14.11,12.41l-2.91,63.38C2727.97,1561.03,2719.76,1629.16,2719.76,1630.61z" fill="#ededee"/>
  <path d="M2872.18 1809.47c1.4 6.03.09 12.19-5.9 13.77 0 0-114.53 13.63-101.22-125.86l6.39-141.39c0-26.09 8.24-53.26 27.36-71l3.18-4.73 23.71 9.96c26.09 12.67 42.03 39.73 40.43 68.68l-.28 54.17C2863.68 1657.69 2869.09 1796.2 2872.18 1809.47zM2757.28 1481.94l-12.3 3.29c-19.04 5.56-34.22 20.68-34.22 40.1v33.25c0 20.16-1.31 40.3-3.93 60.28l-33.05 157.43c-.92 7 2.33 9.8 10.46 14.61l48.57 20.31c5.16 1.24 9.36-4.19 6.85-8.87l0 0c-9.16-17.13-13.05-54-11.17-73.34l10.94-112.53c.97-9.98 1.57-20 1.8-30.02L2757.28 1481.94z" fill="#54619c"/>
  <polygon points="2757.28 1481.94 2752.71 1511.74 2779.3 1514.11 2801.98 1480.27 2766.97 1503.62" fill="#e0e1e0"/>
  <path d="M2766.97,1503.62l5.57,6.76l-2.05,8.4l2.07,17.09c5.76,47.65,33.15,90,74.26,114.79l7.49,4.52c22.64,13.65,41.32,32.99,54.18,56.1l15.95,28.66l-11.86,21.77l-24.17-9.89l-19.32-34.8c-8.71-15.69-20.41-29.52-34.44-40.71l-14.61-11.65c-37-29.51-58.59-74.22-58.69-121.54l-0.05-23.6l-0.86-9.67L2766.97,1503.62z" fill="#f0596a"/>
  <path d="M2763.32,1917.15L2763.32,1917.15c23.78-26.17,21.28-66.81-5.54-89.87l-525.36-451.73l-59,64.94l499.91,479.75C2698.85,1944.72,2739.54,1943.32,2763.32,1917.15z" fill="#fdbb3c"/>
  <path d="M2695.47,1933.93c23.17,8.43,50.16,2.69,67.85-16.78c23.78-26.18,21.28-66.8-5.52-89.89l-525.4-451.71l-11.56,12.72l506.87,435.84c26.85,23.05,29.3,63.72,5.52,89.9C2722.97,1925.3,2709.46,1932,2695.47,1933.93z" fill="#eda329"/>
  <path d="M1759.1,1443.26c121.34,110.24,304.13,111.17,426.38,8.74c11.26-9.32,21.93-19.58,32.05-30.71c10.12-11.14,19.3-22.73,27.51-34.84c90.32-131.54,71.86-313.35-49.48-423.59c-132.42-120.31-338.07-110.5-458.43,21.97C1616.82,1117.26,1626.68,1322.95,1759.1,1443.26z" fill="#fdbb3c"/>
  <path d="M2613.64,1745.45l-32.29,13.1c-3.51,1.42-6.88,3.16-10.12,5.12c-9.87,5.94-36.57,18.03-56.79-9.68c-3.1-4.24-0.25-10.27,5-10.34c9.36-0.12,25.34-1.4,29.44-7.41l-12.85-7.87c-2.41-1.47-3.08-4.67-1.46-6.99l0,0c1.26-1.8,3.56-2.55,5.64-1.82l16.96,5.92c4.15,1.45,8.65,1.54,12.85,0.27l30.87-9.33" fill="#f7b0c0"/>
  <path d="M2584.81,1761.82c0,0,170.1-61.28,175.18-64.93c57.37-41.29,101.78-94.7,101.78-94.7l-35.84-42.36l-33.82-1.6l-68.29,90.63c-2.29,3.93-161.28,71.71-161.28,71.71L2584.81,1761.82z" fill="#54619c"/>
</svg>
