<svg xmlns="http://www.w3.org/2000/svg" viewBox="0 0 400 280" fill="none">
  <!-- background -->
  <rect width="400" height="280" rx="20" fill="#fff6d1"/>

  <!-- calendar card shadow -->
  <rect x="44" y="48" width="312" height="208" rx="12" fill="#092d74" opacity="0.10"/>
  <!-- calendar card -->
  <rect x="40" y="44" width="312" height="208" rx="12" fill="#ffffff"/>

  <!-- month header bar -->
  <path d="M 40 56 a 12 12 0 0 1 12 -12 h 288 a 12 12 0 0 1 12 12 v 28 H 40 z" fill="#014fd3"/>
  <text x="196" y="76" text-anchor="middle" font-family="Inter, system-ui, sans-serif" font-size="14" font-weight="800" fill="#ffffff">JUNE · CHEAPEST MONTH VIEW</text>

  <!-- day-of-week labels -->
  <g font-family="Inter, system-ui, sans-serif" font-size="9" font-weight="700" fill="#092d74" opacity="0.75">
    <text x="62"  y="102" text-anchor="middle">M</text>
    <text x="100" y="102" text-anchor="middle">T</text>
    <text x="138" y="102" text-anchor="middle">W</text>
    <text x="176" y="102" text-anchor="middle">T</text>
    <text x="214" y="102" text-anchor="middle">F</text>
    <text x="252" y="102" text-anchor="middle">S</text>
    <text x="290" y="102" text-anchor="middle">S</text>
  </g>

  <!-- grid cells: 5 weeks × 7 cols, each cell 32×26 with day + tiny price -->
  <!-- generic cell background path: rounded rect -->

  <!-- Row 1 -->
  <rect x="48"  y="110" width="28" height="22" rx="3" fill="#f0f2f4"/>
  <text x="62"  y="124" text-anchor="middle" font-family="Inter, system-ui, sans-serif" font-size="9" font-weight="700" fill="#092d74">1</text>
  <rect x="86"  y="110" width="28" height="22" rx="3" fill="#f0f2f4"/>
  <text x="100" y="124" text-anchor="middle" font-family="Inter, system-ui, sans-serif" font-size="9" font-weight="700" fill="#092d74">2</text>
  <rect x="124" y="110" width="28" height="22" rx="3" fill="#f0f2f4"/>
  <text x="138" y="124" text-anchor="middle" font-family="Inter, system-ui, sans-serif" font-size="9" font-weight="700" fill="#092d74">3</text>
  <rect x="162" y="110" width="28" height="22" rx="3" fill="#f0f2f4"/>
  <text x="176" y="124" text-anchor="middle" font-family="Inter, system-ui, sans-serif" font-size="9" font-weight="700" fill="#092d74">4</text>
  <rect x="200" y="110" width="28" height="22" rx="3" fill="#f0f2f4"/>
  <text x="214" y="124" text-anchor="middle" font-family="Inter, system-ui, sans-serif" font-size="9" font-weight="700" fill="#092d74">5</text>
  <rect x="238" y="110" width="28" height="22" rx="3" fill="#f0f2f4"/>
  <text x="252" y="124" text-anchor="middle" font-family="Inter, system-ui, sans-serif" font-size="9" font-weight="700" fill="#092d74">6</text>
  <rect x="276" y="110" width="28" height="22" rx="3" fill="#f0f2f4"/>
  <text x="290" y="124" text-anchor="middle" font-family="Inter, system-ui, sans-serif" font-size="9" font-weight="700" fill="#092d74">7</text>

  <!-- Row 2 -->
  <rect x="48"  y="136" width="28" height="22" rx="3" fill="#f0f2f4"/>
  <text x="62"  y="150" text-anchor="middle" font-family="Inter, system-ui, sans-serif" font-size="9" font-weight="700" fill="#092d74">8</text>
  <rect x="86"  y="136" width="28" height="22" rx="3" fill="#f0f2f4"/>
  <text x="100" y="150" text-anchor="middle" font-family="Inter, system-ui, sans-serif" font-size="9" font-weight="700" fill="#092d74">9</text>
  <rect x="124" y="136" width="28" height="22" rx="3" fill="#cfe9fe"/>
  <text x="138" y="150" text-anchor="middle" font-family="Inter, system-ui, sans-serif" font-size="9" font-weight="700" fill="#014fd3">10</text>
  <rect x="162" y="136" width="28" height="22" rx="3" fill="#cfe9fe"/>
  <text x="176" y="150" text-anchor="middle" font-family="Inter, system-ui, sans-serif" font-size="9" font-weight="700" fill="#014fd3">11</text>
  <rect x="200" y="136" width="28" height="22" rx="3" fill="#f0f2f4"/>
  <text x="214" y="150" text-anchor="middle" font-family="Inter, system-ui, sans-serif" font-size="9" font-weight="700" fill="#092d74">12</text>
  <rect x="238" y="136" width="28" height="22" rx="3" fill="#f0f2f4"/>
  <text x="252" y="150" text-anchor="middle" font-family="Inter, system-ui, sans-serif" font-size="9" font-weight="700" fill="#092d74">13</text>
  <rect x="276" y="136" width="28" height="22" rx="3" fill="#f0f2f4"/>
  <text x="290" y="150" text-anchor="middle" font-family="Inter, system-ui, sans-serif" font-size="9" font-weight="700" fill="#092d74">14</text>

  <!-- Row 3 (with the cheapest day highlighted) -->
  <rect x="48"  y="162" width="28" height="22" rx="3" fill="#f0f2f4"/>
  <text x="62"  y="176" text-anchor="middle" font-family="Inter, system-ui, sans-serif" font-size="9" font-weight="700" fill="#092d74">15</text>
  <rect x="86"  y="162" width="28" height="22" rx="3" fill="#f0f2f4"/>
  <text x="100" y="176" text-anchor="middle" font-family="Inter, system-ui, sans-serif" font-size="9" font-weight="700" fill="#092d74">16</text>
  <!-- cheapest day -->
  <rect x="124" y="162" width="28" height="22" rx="3" fill="#ffe200"/>
  <text x="138" y="170" text-anchor="middle" font-family="Inter, system-ui, sans-serif" font-size="8" font-weight="800" fill="#092d74">17</text>
  <text x="138" y="180" text-anchor="middle" font-family="Inter, system-ui, sans-serif" font-size="7" font-weight="800" fill="#092d74">$98</text>
  <rect x="162" y="162" width="28" height="22" rx="3" fill="#cfe9fe"/>
  <text x="176" y="176" text-anchor="middle" font-family="Inter, system-ui, sans-serif" font-size="9" font-weight="700" fill="#014fd3">18</text>
  <rect x="200" y="162" width="28" height="22" rx="3" fill="#f0f2f4"/>
  <text x="214" y="176" text-anchor="middle" font-family="Inter, system-ui, sans-serif" font-size="9" font-weight="700" fill="#092d74">19</text>
  <rect x="238" y="162" width="28" height="22" rx="3" fill="#f0f2f4"/>
  <text x="252" y="176" text-anchor="middle" font-family="Inter, system-ui, sans-serif" font-size="9" font-weight="700" fill="#092d74">20</text>
  <rect x="276" y="162" width="28" height="22" rx="3" fill="#f0f2f4"/>
  <text x="290" y="176" text-anchor="middle" font-family="Inter, system-ui, sans-serif" font-size="9" font-weight="700" fill="#092d74">21</text>

  <!-- Row 4 -->
  <rect x="48"  y="188" width="28" height="22" rx="3" fill="#f0f2f4"/>
  <text x="62"  y="202" text-anchor="middle" font-family="Inter, system-ui, sans-serif" font-size="9" font-weight="700" fill="#092d74">22</text>
  <rect x="86"  y="188" width="28" height="22" rx="3" fill="#cfe9fe"/>
  <text x="100" y="202" text-anchor="middle" font-family="Inter, system-ui, sans-serif" font-size="9" font-weight="700" fill="#014fd3">23</text>
  <rect x="124" y="188" width="28" height="22" rx="3" fill="#f0f2f4"/>
  <text x="138" y="202" text-anchor="middle" font-family="Inter, system-ui, sans-serif" font-size="9" font-weight="700" fill="#092d74">24</text>
  <rect x="162" y="188" width="28" height="22" rx="3" fill="#f0f2f4"/>
  <text x="176" y="202" text-anchor="middle" font-family="Inter, system-ui, sans-serif" font-size="9" font-weight="700" fill="#092d74">25</text>
  <rect x="200" y="188" width="28" height="22" rx="3" fill="#f0f2f4"/>
  <text x="214" y="202" text-anchor="middle" font-family="Inter, system-ui, sans-serif" font-size="9" font-weight="700" fill="#092d74">26</text>
  <rect x="238" y="188" width="28" height="22" rx="3" fill="#f0f2f4"/>
  <text x="252" y="202" text-anchor="middle" font-family="Inter, system-ui, sans-serif" font-size="9" font-weight="700" fill="#092d74">27</text>
  <rect x="276" y="188" width="28" height="22" rx="3" fill="#f0f2f4"/>
  <text x="290" y="202" text-anchor="middle" font-family="Inter, system-ui, sans-serif" font-size="9" font-weight="700" fill="#092d74">28</text>

  <!-- Row 5 (partial) -->
  <rect x="48"  y="214" width="28" height="22" rx="3" fill="#f0f2f4"/>
  <text x="62"  y="228" text-anchor="middle" font-family="Inter, system-ui, sans-serif" font-size="9" font-weight="700" fill="#092d74">29</text>
  <rect x="86"  y="214" width="28" height="22" rx="3" fill="#f0f2f4"/>
  <text x="100" y="228" text-anchor="middle" font-family="Inter, system-ui, sans-serif" font-size="9" font-weight="700" fill="#092d74">30</text>

  <!-- magnifying glass over the cheapest day -->
  <g transform="translate(154 152)">
    <circle r="16" cx="0" cy="0" fill="none" stroke="#092d74" stroke-width="3"/>
    <circle r="13" cx="0" cy="0" fill="none" stroke="#ffffff" stroke-width="1.5"/>
    <line x1="11" y1="11" x2="22" y2="22" stroke="#092d74" stroke-width="4" stroke-linecap="round"/>
  </g>
</svg>
