<?xml version="1.0" encoding="UTF-8"?>
<svg id="Layer_1" data-name="Layer 1" xmlns="http://www.w3.org/2000/svg" xmlns:xlink="http://www.w3.org/1999/xlink" viewBox="0 0 300.32 167.08">
  <defs>
    <style>
      .cls-1 {
        fill: #fff;
      }

      .cls-2 {
        fill: none;
      }

      .cls-3 {
        fill: #ffde59;
      }

      .cls-4 {
        clip-path: url(#clippath-1);
      }

      .cls-5 {
        clip-path: url(#clippath-3);
      }

      .cls-6 {
        fill: #061b46;
      }

      .cls-7 {
        fill: #0046be;
      }

      .cls-8 {
        clip-path: url(#clippath-2);
      }

      .cls-9 {
        clip-path: url(#clippath);
      }
    </style>
    <clipPath id="clippath">
      <rect class="cls-2" x=".18" y=".96" width="153.47" height="165.15"/>
    </clipPath>
    <clipPath id="clippath-1">
      <rect class="cls-2" width="154.23" height="167.08"/>
    </clipPath>
    <clipPath id="clippath-2">
      <rect class="cls-2" x=".18" y=".96" width="153.47" height="164.95"/>
    </clipPath>
    <clipPath id="clippath-3">
      <rect class="cls-2" x="216.93" y="77.56" width="83.25" height="83.25"/>
    </clipPath>
  </defs>
  <rect class="cls-6" x=".18" y=".04" width="300" height="167"/>
  <g class="cls-9">
    <g class="cls-4">
      <g class="cls-8">
        <path class="cls-1" d="M.18.96h153.47v164.86H.18V.96Z"/>
      </g>
    </g>
  </g>
  <g class="cls-5">
    <path class="cls-3" d="M254.64,77.63h6.9v41.64h-6.9s0-41.64,0-41.64ZM240.64,81.51l6.48-2.37,14.24,39.14-6.48,2.36-14.25-39.13h0ZM228.81,89.93l5.28-4.43,26.76,31.9-5.28,4.43-26.77-31.9h0ZM220.57,101.9l3.45-5.97,36.06,20.82-3.44,5.98-36.07-20.83h0ZM216.93,115.96l1.19-6.78,41.01,7.23-1.2,6.78-41.01-7.23h0ZM218.3,130.42l-1.19-6.78,41.01-7.23,1.2,6.78-41.01,7.23h0ZM224.55,143.54l-3.45-5.98,36.07-20.82,3.44,5.98-36.06,20.82ZM234.91,153.73l-5.28-4.43,26.77-31.9,5.28,4.43-26.76,31.9h0ZM248.12,159.77l-6.48-2.37,14.25-39.13,6.48,2.36-14.23,39.14h0ZM262.6,160.91h-6.89v-41.64h6.89v41.64ZM276.6,157.04l-6.48,2.36-14.24-39.13,6.48-2.36,14.24,39.13h0ZM288.44,148.61l-5.28,4.43-26.76-31.9,5.28-4.43,26.77,31.91h0ZM296.67,136.64l-3.44,5.98-36.06-20.82,3.44-5.98,36.06,20.82ZM300.32,122.59l-1.2,6.79-41.01-7.23,1.2-6.79,41.01,7.23ZM298.94,108.13l1.2,6.79-41.01,7.24-1.2-6.79,41.01-7.24ZM292.7,95.01l3.44,5.98-36.06,20.82-3.44-5.98,36.06-20.82h0ZM282.34,84.82l5.28,4.43-26.76,31.9-5.28-4.43s26.76-31.9,26.76-31.9ZM269.13,78.79l6.48,2.36-14.25,39.13-6.48-2.36,14.24-39.13h0Z"/>
  </g>
  <path class="cls-7" d="M42.57,79.62c-4.25,0-8.16-.73-11.72-2.17s-6.69-3.46-9.35-6.05c-2.66-2.59-4.76-5.63-6.27-9.13-1.5-3.49-2.24-7.26-2.24-11.3s.74-7.78,2.21-11.21c1.47-3.44,3.53-6.47,6.17-9.05,2.64-2.59,5.74-4.6,9.32-6.03,3.58-1.43,7.49-2.14,11.74-2.14s8.13.71,11.7,2.14c3.58,1.43,6.69,3.44,9.33,6.03,2.64,2.59,4.7,5.63,6.17,9.1,1.48,3.46,2.23,7.2,2.23,11.24s-.74,7.8-2.23,11.26c-1.47,3.47-3.53,6.51-6.17,9.13-2.65,2.6-5.73,4.62-9.27,6.05s-7.41,2.14-11.61,2.14ZM42.42,67.21c3.1,0,5.79-.67,8.07-2.01,2.27-1.35,4.03-3.24,5.28-5.68,1.24-2.44,1.87-5.28,1.87-8.54,0-2.38-.36-4.56-1.06-6.52-.69-1.97-1.72-3.67-3.07-5.09-1.34-1.43-2.94-2.52-4.8-3.29-1.87-.78-3.96-1.17-6.28-1.17-3.1,0-5.8.66-8.09,1.97-2.28,1.31-4.03,3.19-5.28,5.63-1.24,2.44-1.87,5.26-1.87,8.47,0,2.48.35,4.72,1.04,6.72.7,2,1.73,3.71,3.07,5.13,1.35,1.41,2.96,2.5,4.82,3.25,1.87.75,3.96,1.13,6.3,1.13h0Z"/>
  <path class="cls-7" d="M89.85,56.33v-9.93h10.48c2.27,0,4.02-.55,5.24-1.66,1.22-1.12,1.82-2.64,1.82-4.55s-.61-3.37-1.82-4.55c-1.22-1.17-2.97-1.75-5.24-1.75h-10.48v-10.31h12.42c3.73,0,7.01.7,9.82,2.1,2.82,1.38,5.04,3.3,6.64,5.73,1.6,2.44,2.41,5.28,2.41,8.54s-.81,6.13-2.44,8.58c-1.63,2.46-3.9,4.37-6.79,5.75-2.9,1.37-6.29,2.04-10.17,2.04h-11.89ZM78.82,78.62V23.58h13.89v55.04h-13.89ZM108.63,78.62l-15.99-23.61,12.5-3.03,19.55,26.64s-16.06,0-16.06,0Z"/>
  <path class="cls-7" d="M129.21,78.62V23.58h13.89v55.04h-13.89Z"/>
  <path class="cls-7" d="M26.67,137.83v-44.54h12.52v44.54s-12.52,0-12.52,0ZM36.8,122.01v-10.38h21.91v10.38h-21.91ZM36.8,103.67v-10.38h22.84v10.38h-22.84Z"/>
  <path class="cls-7" d="M58.52,137.83l16.94-44.54h12.76l16.78,44.54h-13.01l-12.45-37.85h4.51l-12.76,37.85h-12.77ZM69.53,130.33v-9.77h24.9v9.77h-24.9Z"/>
  <path class="cls-7" d="M128.43,138.59c-3.43,0-6.61-.58-9.55-1.72-2.94-1.14-5.51-2.76-7.72-4.84-2.21-2.09-3.92-4.55-5.15-7.36-1.24-2.82-1.84-5.88-1.84-9.17s.61-6.41,1.84-9.2c1.23-2.8,2.94-5.22,5.13-7.26s4.75-3.64,7.67-4.78c2.92-1.14,6.09-1.72,9.51-1.72s6.62.54,9.49,1.62c2.88,1.09,5.39,2.59,7.52,4.51l-8.32,8.38c-1-1.08-2.23-1.94-3.67-2.56-1.44-.63-3.11-.95-5.02-.95-1.67,0-3.21.27-4.6.82-1.4.53-2.6,1.33-3.62,2.37-1,1.03-1.78,2.3-2.34,3.78-.56,1.49-.84,3.15-.84,4.99s.28,3.56.84,5.04c.56,1.47,1.34,2.73,2.34,3.78,1.01,1.03,2.22,1.84,3.62,2.41,1.39.56,2.93.84,4.6.84,1.88,0,3.55-.29,5.02-.88,1.48-.59,2.77-1.45,3.86-2.58l8.38,8.39c-2.21,1.91-4.68,3.41-7.43,4.47s-5.99,1.59-9.71,1.59l.02.02Z"/>
  <path class="cls-1" d="M185.17,79.48c-4.2,0-8.07-.71-11.61-2.14s-6.64-3.43-9.32-6c-2.66-2.59-4.74-5.61-6.22-9.05-1.47-3.44-2.21-7.19-2.21-11.23s.75-7.85,2.28-11.29c1.53-3.44,3.67-6.45,6.41-9.02,2.75-2.57,5.95-4.56,9.6-5.97,3.65-1.43,7.54-2.14,11.68-2.14,4.92,0,9.37.87,13.35,2.61,3.99,1.73,7.23,4.12,9.71,7.16l-9.32,9.33c-1.88-2.23-3.93-3.89-6.15-5-2.22-1.12-4.8-1.68-7.76-1.68s-5.67.67-8.04,1.99c-2.35,1.31-4.22,3.16-5.63,5.55-1.4,2.37-2.1,5.17-2.1,8.38s.66,6.04,1.97,8.47c1.32,2.43,3.14,4.31,5.44,5.66s4.95,2.02,7.96,2.02,5.56-.57,7.65-1.72c2.09-1.14,3.69-2.8,4.8-4.97,1.12-2.17,1.68-4.77,1.68-7.78l9.4,6.06-25.09-.62v-11.34h29.66v2.1c0,6.57-1.19,12.14-3.58,16.7-2.38,4.56-5.69,8.01-9.91,10.37-4.21,2.35-9.11,3.52-14.7,3.52h.02Z"/>
  <path class="cls-1" d="M219.94,78.62V23.58h13.89v55.04h-13.89,0Z"/>
  <path class="cls-1" d="M243.62,78.62V23.58h9.71l4.18,11.24v43.8h-13.89,0ZM281.6,78.62l-32.15-40.84,3.89-14.2,32.22,40.84-3.96,14.2ZM281.6,78.62l-3.58-11.58V23.58h13.89v55.04h-10.31Z"/>
  <path class="cls-1" d="M170.12,139.45v-44.54h12.5v44.54h-12.5ZM156.8,105.55v-10.65h39.23v10.65h-39.23Z"/>
  <path class="cls-1" d="M212.96,140.2c-3.79,0-7.09-.56-9.91-1.66-2.81-1.1-5.41-2.87-7.78-5.28l7.82-7.83c1.63,1.55,3.34,2.73,5.13,3.54,1.79.81,3.71,1.23,5.75,1.23,1.72,0,3.01-.26,3.89-.79.88-.52,1.31-1.24,1.31-2.16s-.38-1.68-1.13-2.28c-.75-.6-1.74-1.15-2.98-1.62-1.24-.48-2.59-.97-4.07-1.48-1.47-.5-2.94-1.1-4.4-1.81-1.46-.72-2.8-1.59-4.03-2.61-1.24-1.03-2.23-2.29-2.98-3.81-.75-1.52-1.13-3.38-1.13-5.59,0-2.88.68-5.37,2.06-7.45,1.38-2.09,3.33-3.69,5.83-4.78,2.51-1.1,5.44-1.66,8.82-1.66s6.44.53,9.29,1.6c2.86,1.06,5.22,2.57,7.1,4.53l-7.89,7.82c-1.38-1.34-2.75-2.33-4.13-2.98-1.38-.64-2.88-.96-4.51-.96-1.29,0-2.33.21-3.1.64-.77.41-1.15,1.03-1.15,1.87,0,.88.38,1.6,1.13,2.17.75.56,1.74,1.07,2.98,1.53,1.23.46,2.58.93,4.06,1.43s2.96,1.1,4.42,1.79c1.46.68,2.8,1.56,4.03,2.63,1.23,1.06,2.22,2.38,2.98,3.98.75,1.59,1.13,3.5,1.13,5.75,0,4.54-1.62,8.05-4.85,10.53-3.22,2.48-7.79,3.72-13.67,3.72h0Z"/>
</svg>