<?xml version="1.0" encoding="UTF-8"?>
<svg id="Layer_1" data-name="Layer 1" xmlns="http://www.w3.org/2000/svg" xmlns:xlink="http://www.w3.org/1999/xlink" width="300px" height="167px" viewBox="0 0 342.35 188.46">
  <defs>
    <style>
      .cls-1 {
        fill: #fff;
      }

      .cls-2 {
        fill: none;
      }

      .cls-3 {
        fill: #ffde59;
      }

      .cls-4 {
        clip-path: url(#clippath-1);
      }

      .cls-5 {
        clip-path: url(#clippath-3);
      }

      .cls-6 {
        fill: #0046be;
      }

      .cls-7 {
        clip-path: url(#clippath-2);
      }

      .cls-8 {
        clip-path: url(#clippath);
      }

      .sun {
        transform-box: fill-box;
        transform-origin: center;
        animation: originfacts-sun-spin 30s linear infinite;
      }

      @keyframes originfacts-sun-spin {
        to { transform: rotate(360deg); }
      }

      @media (prefers-reduced-motion: reduce) {
        .sun { animation: none; }
      }
    </style>
    <clipPath id="clippath">
      <rect class="cls-2" width="175.13" height="188.46"/>
    </clipPath>
    <clipPath id="clippath-1">
      <rect class="cls-2" x="-.2" y="-1.1" width="176" height="190.67"/>
    </clipPath>
    <clipPath id="clippath-2">
      <rect class="cls-2" y="0" width="175.13" height="188.23"/>
    </clipPath>
    <clipPath id="clippath-3">
      <rect class="cls-2" x="247.35" y="87.41" width="95" height="95"/>
    </clipPath>
  </defs>
  <g class="cls-8">
    <g class="cls-4">
      <g class="cls-7">
        <path class="cls-6" d="M0,0h175.13v188.13H0V0Z"/>
      </g>
    </g>
  </g>
  <g class="cls-5">
    <g class="sun">
      <path class="cls-3" d="M290.39,87.49h7.87v47.52h-7.87v-47.52ZM274.41,91.92l7.4-2.7,16.25,44.66-7.4,2.69-16.26-44.65ZM260.91,101.53l6.03-5.06,30.54,36.4-6.03,5.06-30.55-36.4ZM251.51,115.18l3.94-6.81,41.15,23.76-3.93,6.82-41.16-23.77ZM247.35,131.23l1.36-7.74,46.8,8.25-1.37,7.74-46.8-8.25ZM248.92,147.73l-1.36-7.74,46.8-8.25,1.37,7.74-46.8,8.25ZM256.05,162.7l-3.94-6.82,41.16-23.76,3.93,6.82-41.15,23.76ZM267.87,174.33l-6.03-5.06,30.55-36.4,6.03,5.06-30.54,36.4ZM282.95,181.22l-7.4-2.7,16.26-44.65,7.39,2.69-16.24,44.66ZM299.47,182.53h-7.86v-47.52h7.86v47.52ZM315.45,178.11l-7.39,2.69-16.25-44.65,7.39-2.69,16.25,44.65ZM328.96,168.49l-6.03,5.06-30.54-36.4,6.03-5.06,30.55,36.41ZM338.35,154.83l-3.93,6.82-41.15-23.76,3.93-6.82,41.15,23.76ZM342.52,138.79l-1.37,7.75-46.8-8.25,1.37-7.75,46.8,8.25ZM340.94,122.29l1.37,7.75-46.8,8.26-1.37-7.75,46.8-8.26ZM333.82,107.32l3.93,6.82-41.15,23.76-3.93-6.82,41.15-23.76ZM322,95.69l6.03,5.06-30.54,36.4-6.03-5.06,30.54-36.4ZM306.92,88.81l7.4,2.69-16.26,44.65-7.4-2.69,16.25-44.65Z"/>
    </g>
  </g>
  <path class="cls-1" d="M48.38,89.76c-4.85,0-9.31-.83-13.38-2.48-4.07-1.65-7.63-3.95-10.67-6.9-3.04-2.96-5.43-6.43-7.15-10.42-1.71-3.98-2.56-8.28-2.56-12.9s.84-8.88,2.52-12.79c1.68-3.93,4.03-7.38,7.04-10.33,3.01-2.96,6.55-5.25,10.63-6.88,4.08-1.63,8.55-2.44,13.4-2.44s9.28.81,13.35,2.44c4.08,1.63,7.63,3.92,10.65,6.88,3.01,2.96,5.36,6.42,7.04,10.38,1.69,3.95,2.54,8.22,2.54,12.83s-.85,8.9-2.54,12.85c-1.68,3.96-4.03,7.43-7.04,10.42-3.02,2.97-6.54,5.27-10.58,6.9s-8.46,2.44-13.25,2.44ZM48.21,75.6c3.54,0,6.61-.76,9.21-2.29,2.59-1.54,4.6-3.7,6.02-6.48,1.42-2.78,2.13-6.03,2.13-9.75,0-2.72-.41-5.2-1.21-7.44-.79-2.25-1.96-4.19-3.5-5.81-1.53-1.63-3.35-2.88-5.48-3.75-2.13-.89-4.52-1.33-7.17-1.33-3.54,0-6.62.75-9.23,2.25-2.6,1.5-4.6,3.64-6.02,6.42-1.42,2.78-2.13,6-2.13,9.67,0,2.83.4,5.39,1.19,7.67.8,2.28,1.97,4.23,3.5,5.85,1.54,1.61,3.38,2.85,5.5,3.71,2.13.86,4.52,1.29,7.19,1.29Z"/>
  <path class="cls-1" d="M102.33,63.18v-11.33h11.96c2.59,0,4.59-.63,5.98-1.9,1.39-1.28,2.08-3.01,2.08-5.19s-.7-3.85-2.08-5.19c-1.39-1.33-3.39-2-5.98-2h-11.96v-11.77h14.17c4.26,0,8,.8,11.21,2.4,3.22,1.58,5.75,3.77,7.58,6.54,1.83,2.78,2.75,6.03,2.75,9.75s-.93,6.99-2.79,9.79c-1.86,2.81-4.45,4.99-7.75,6.56-3.31,1.56-7.18,2.33-11.6,2.33h-13.56ZM89.75,88.62V25.81h15.85v62.81h-15.85ZM123.77,88.62l-18.25-26.94,14.27-3.46,22.31,30.4h-18.33Z"/>
  <path class="cls-1" d="M147.25,88.62V25.81h15.85v62.81h-15.85Z"/>
  <path class="cls-1" d="M30.24,156.19v-50.83h14.29v50.83h-14.29ZM41.8,138.13v-11.85h25v11.85h-25ZM41.8,117.21v-11.85h26.06v11.85h-26.06Z"/>
  <path class="cls-1" d="M66.58,156.19l19.33-50.83h14.56l19.15,50.83h-14.85l-14.21-43.19h5.15l-14.56,43.19h-14.56ZM79.14,147.63v-11.15h28.42v11.15h-28.42Z"/>
  <path class="cls-1" d="M146.36,157.05c-3.91,0-7.54-.66-10.9-1.96-3.35-1.3-6.29-3.15-8.81-5.52-2.52-2.39-4.47-5.19-5.88-8.4-1.41-3.22-2.1-6.71-2.1-10.46s.7-7.32,2.1-10.5c1.4-3.19,3.35-5.96,5.85-8.29s5.42-4.15,8.75-5.46c3.33-1.3,6.95-1.96,10.85-1.96s7.55.62,10.83,1.85c3.29,1.24,6.15,2.95,8.58,5.15l-9.5,9.56c-1.14-1.23-2.54-2.21-4.19-2.92-1.64-.72-3.55-1.08-5.73-1.08-1.91,0-3.66.31-5.25.94-1.6.61-2.97,1.52-4.13,2.71-1.14,1.18-2.03,2.62-2.67,4.31-.64,1.7-.96,3.59-.96,5.69s.32,4.06.96,5.75c.64,1.68,1.53,3.12,2.67,4.31,1.15,1.18,2.53,2.1,4.13,2.75,1.59.64,3.34.96,5.25.96,2.14,0,4.05-.33,5.73-1,1.69-.67,3.16-1.65,4.4-2.94l9.56,9.58c-2.52,2.18-5.34,3.89-8.48,5.1-3.14,1.21-6.83,1.81-11.08,1.81Z"/>
  <path d="M211.11,89.6c-4.79,0-9.21-.81-13.25-2.44s-7.58-3.91-10.63-6.85c-3.04-2.96-5.41-6.4-7.1-10.33-1.68-3.93-2.52-8.2-2.52-12.81s.86-8.96,2.6-12.88c1.75-3.93,4.19-7.36,7.31-10.29,3.14-2.93,6.79-5.2,10.96-6.81,4.17-1.63,8.61-2.44,13.33-2.44,5.61,0,10.69.99,15.23,2.98,4.55,1.97,8.25,4.7,11.08,8.17l-10.63,10.65c-2.14-2.54-4.48-4.44-7.02-5.71-2.53-1.28-5.48-1.92-8.85-1.92s-6.47.76-9.17,2.27c-2.68,1.5-4.82,3.61-6.42,6.33-1.6,2.71-2.4,5.9-2.4,9.56s.75,6.89,2.25,9.67c1.51,2.77,3.58,4.92,6.21,6.46s5.65,2.31,9.08,2.31,6.34-.65,8.73-1.96c2.39-1.3,4.21-3.19,5.48-5.67,1.28-2.48,1.92-5.44,1.92-8.88l10.73,6.92-28.63-.71v-12.94h33.85v2.4c0,7.5-1.36,13.85-4.08,19.06-2.72,5.2-6.49,9.14-11.31,11.83-4.81,2.68-10.4,4.02-16.77,4.02Z"/>
  <path d="M250.79,88.62V25.81h15.85v62.81h-15.85Z"/>
  <path d="M277.81,88.62V25.81h11.08l4.77,12.83v49.98h-15.85ZM321.15,88.62l-36.69-46.6,4.44-16.21,36.77,46.6-4.52,16.21ZM321.15,88.62l-4.08-13.21V25.81h15.85v62.81h-11.77Z"/>
  <path d="M193.94,158.04v-50.83h14.27v50.83h-14.27ZM178.74,119.35v-12.15h44.77v12.15h-44.77Z"/>
  <path d="M242.82,158.89c-4.32,0-8.09-.64-11.31-1.9-3.21-1.26-6.17-3.27-8.88-6.02l8.92-8.94c1.86,1.77,3.81,3.11,5.85,4.04,2.04.93,4.23,1.4,6.56,1.4,1.96,0,3.44-.3,4.44-.9,1-.59,1.5-1.42,1.5-2.46s-.43-1.92-1.29-2.6c-.86-.69-1.99-1.31-3.4-1.85-1.41-.55-2.95-1.11-4.65-1.69-1.68-.57-3.35-1.26-5.02-2.06-1.67-.82-3.2-1.81-4.6-2.98-1.41-1.17-2.54-2.61-3.4-4.35-.86-1.73-1.29-3.86-1.29-6.38,0-3.29.78-6.13,2.35-8.5,1.58-2.39,3.8-4.21,6.65-5.46,2.86-1.26,6.21-1.9,10.06-1.9s7.35.61,10.6,1.83c3.26,1.21,5.96,2.93,8.1,5.17l-9,8.92c-1.57-1.53-3.14-2.66-4.71-3.4-1.57-.73-3.29-1.1-5.15-1.1-1.47,0-2.66.24-3.54.73-.88.47-1.31,1.18-1.31,2.13,0,1,.43,1.83,1.29,2.48.86.64,1.99,1.22,3.4,1.75,1.4.52,2.94,1.06,4.63,1.63,1.69.57,3.38,1.25,5.04,2.04,1.67.78,3.2,1.78,4.6,3,1.4,1.21,2.53,2.72,3.4,4.54.86,1.81,1.29,3.99,1.29,6.56,0,5.18-1.85,9.19-5.54,12.02-3.68,2.83-8.89,4.25-15.6,4.25Z"/>
</svg>